# xmcd
#
# Track frame offsets: 
#        150
#        34017
#        50860
#        83185
#        96907
#        121052
#        151050
#        166392
#        196905
#        216462
#        242005
#
# Disc length: 3323 seconds
#
# Revision: 8
# Processed by: cddbd v1.5.2PL0 Copyright (c) Steve Scherf et al.
# Submitted via: ExactAudioCopyFreeDBPlugin 1.0
#
DISCID=900cf90b
DTITLE=Jacky Terrasson - Jacky Terrasson
DYEAR=1994
DGENRE=Jazz
TTITLE0=I love Paris
TTITLE1=Just A Blues
TTITLE2=My Funny Valentine
TTITLE3=Hommage á Lili Boulanger
TTITLE4=Bye Bye Blackbird
TTITLE5=He Goes On A Trip
TTITLE6=I Fall In Love Too Easily
TTITLE7=Time After Time
TTITLE8=For Once In My Life
TTITLE9=What A Difference A Day Made
TTITLE10=Cumba's Dance
EXTD=Blue Note\nCDP 7243 8 29351 2 4\n\nJacky Terrasson, piano\nUgonna
EXTD=Okegwo, bass\nLeon Parker, dr YEAR: 1994
EXTT0=
EXTT1=
EXTT2=
EXTT3=
EXTT4=
EXTT5=
EXTT6=
EXTT7=
EXTT8=
EXTT9=
EXTT10=
PLAYORDER=
